<svg data-v-423bf9ae="" xmlns="http://www.w3.org/2000/svg" viewBox="0 0 248 100" class="iconLeft"><!----><!----><!----><g data-v-423bf9ae="" id="8e4843eb-69a3-42bf-b7cb-0197b814c17b" fill="white" transform="matrix(4.788507683852314,0,0,4.788507683852314,120.89674195206587,14.899262354327128)"><path d="M5.31 7.91L5.31 7.91Q5.53 7.99 5.81 8.15L5.81 8.15L5.81 8.15Q5.39 6.64 5.17 5.57L5.17 5.57L5.17 5.57Q4.62 6.66 3.72 8.23L3.72 8.23L3.72 8.23Q3.65 8.39 3.49 8.67L3.49 8.67L3.49 8.67Q4.05 7.80 4.76 7.80L4.76 7.80L4.76 7.80Q5.04 7.80 5.31 7.91L5.31 7.91ZM7.55 5.92L7.55 5.92Q8.12 7.87 8.90 9.55L8.90 9.55L9.06 9.86L9.06 9.86Q9.25 10.19 9.35 10.42L9.35 10.42L9.35 10.42Q9.45 10.65 9.45 10.89L9.45 10.89L9.45 10.89Q9.45 11.26 9.14 11.64L9.14 11.64L9.14 11.64Q8.83 12.03 8.47 12.21L8.47 12.21L8.47 12.21Q8.25 12.33 7.99 12.33L7.99 12.33L7.99 12.33Q7.57 12.33 7.16 12.08L7.16 12.08L7.16 12.08Q6.75 11.82 6.17 11.33L6.17 11.33L6.17 11.33Q5.77 10.99 5.56 10.85L5.56 10.85L5.56 10.85Q5.42 10.75 4.97 10.54L4.97 10.54L4.97 10.54Q4.19 10.15 3.76 9.84L3.76 9.84L3.76 9.84Q3.33 9.53 3.33 9.11L3.33 9.11L3.33 9.11Q3.33 9.00 3.43 8.78L3.43 8.78L3.43 8.78Q3.16 9.25 2.69 10.23L2.69 10.23L2.69 10.23Q2.10 11.42 2.02 11.56L2.02 11.56L2.02 11.56Q1.85 11.87 1.47 12.24L1.47 12.24L1.47 12.24Q1.09 12.61 0.77 12.61L0.77 12.61L0.77 12.61Q0.60 12.61 0.48 12.49L0.48 12.49L0.48 12.49Q0.38 12.39 0.38 12.18L0.38 12.18L0.38 12.18Q0.38 11.59 1.27 10.09L1.27 10.09L1.27 10.09Q1.33 9.98 1.46 9.77L1.46 9.77L1.76 9.18L1.76 9.18Q2.72 7.39 3.15 6.48L3.15 6.48L3.15 6.48Q3.40 5.95 3.88 4.89L3.88 4.89L4.38 3.75L4.38 3.75Q4.69 3.09 5.00 2.65L5.00 2.65L5.00 2.65Q5.31 2.21 5.77 1.97L5.77 1.97L5.77 1.97Q6.01 1.85 6.22 1.85L6.22 1.85L6.22 1.85Q6.50 1.85 6.62 2.11L6.62 2.11L6.62 2.11Q6.75 2.37 6.85 2.87L6.85 2.87L6.85 2.87Q7.10 4.31 7.55 5.92L7.55 5.92ZM15.99 2.79L15.99 2.79Q16.00 3.28 16.00 4.26L16.00 4.26L16.00 4.26Q16.00 5.15 15.97 6.89L15.97 6.89L15.97 6.89Q15.93 8.20 15.93 9.53L15.93 9.53L15.93 9.53Q15.93 10.60 15.97 11.65L15.97 11.65L15.97 11.65Q15.99 11.91 15.81 12.21L15.81 12.21L15.81 12.21Q15.62 12.50 15.34 12.71L15.34 12.71L15.34 12.71Q15.06 12.91 14.84 12.91L14.84 12.91L14.84 12.91Q14.46 12.91 14.45 12.38L14.45 12.38L14.45 12.38Q14.41 11.38 14.41 10.40L14.41 10.40L14.42 9.25L10.49 9.25L10.49 9.25Q10.23 9.25 10.23 9.00L10.23 9.00L10.23 9.00Q10.23 8.74 10.47 8.30L10.47 8.30L10.47 8.30Q10.71 7.87 10.85 7.73L10.85 7.73L14.46 3.81L14.46 3.53L14.46 3.53Q14.46 3.26 14.64 2.96L14.64 2.96L14.64 2.96Q14.83 2.66 15.11 2.46L15.11 2.46L15.11 2.46Q15.39 2.25 15.61 2.25L15.61 2.25L15.61 2.25Q15.97 2.25 15.99 2.79L15.99 2.79ZM12.36 7.48L14.45 7.48L14.45 7.48Q14.48 5.94 14.48 5.19L14.48 5.19L12.36 7.48ZM24.88 7.39L24.88 7.39Q25.02 7.06 25.02 6.76L25.02 6.76L25.02 6.76Q25.02 5.85 23.63 5.85L23.63 5.85L23.63 5.85Q22.99 5.85 22.24 6.04L22.24 6.04L22.24 6.04Q21.49 6.23 21.06 6.45L21.06 6.45L21.06 6.45Q20.30 6.83 19.94 7.19L19.94 7.19L19.94 7.19Q19.59 7.55 19.57 8.19L19.57 8.19L19.57 8.19Q19.56 9.17 19.52 9.91L19.52 9.91L19.52 9.91Q19.47 10.64 19.36 11.35L19.36 11.35L19.36 11.35Q21.06 10.72 22.50 9.76L22.50 9.76L22.50 9.76Q23.45 9.13 24.04 8.60L24.04 8.60L24.04 8.60Q24.63 8.08 24.88 7.39L24.88 7.39ZM19.74 4.35L19.74 4.35Q19.74 4.56 19.71 5.04L19.71 5.04L19.71 5.04Q19.68 5.32 19.68 5.49L19.68 5.49L20.29 4.70L20.29 4.70Q20.79 4.05 21.06 3.68L21.06 3.68L21.06 3.68Q21.32 3.30 21.55 2.87L21.55 2.87L21.55 2.87Q21.06 2.98 20.68 3.12L20.68 3.12L20.68 3.12Q20.30 3.25 19.99 3.46L19.99 3.46L19.99 3.46Q19.82 3.58 19.76 3.67L19.76 3.67L19.76 3.67Q19.70 3.75 19.70 3.85L19.70 3.85L19.70 3.85Q19.70 3.93 19.72 4.07L19.72 4.07L19.72 4.07Q19.74 4.21 19.74 4.35L19.74 4.35ZM25.05 3.98L25.05 3.98Q25.80 4.10 26.16 4.56L26.16 4.56L26.16 4.56Q26.52 5.03 26.52 5.71L26.52 5.71L26.52 5.71Q26.52 6.22 26.31 6.89L26.31 6.89L26.31 6.89Q25.76 8.61 23.81 10.32L23.81 10.32L23.81 10.32Q22.29 11.62 20.43 12.57L20.43 12.57L20.43 12.57Q19.82 12.89 19.05 13.22L19.05 13.22L19.05 13.22Q18.28 13.54 17.74 13.54L17.74 13.54L17.74 13.54Q17.32 13.54 17.18 13.29L17.18 13.29L17.18 13.29Q17.12 13.19 17.12 13.06L17.12 13.06L17.12 13.06Q17.12 12.89 17.21 12.75L17.21 12.75L17.21 12.75Q17.29 12.60 17.47 12.33L17.47 12.33L17.47 12.33Q17.68 12.05 17.74 11.91L17.74 11.91L17.74 11.91Q17.86 11.55 17.86 10.91L17.86 10.91L17.86 10.57L17.86 10.57Q17.86 10.46 17.86 10.30L17.86 10.30L17.86 10.30Q17.85 10.15 17.86 9.97L17.86 9.97L17.86 9.97Q17.98 8.46 18.02 7.70L18.02 7.70L18.02 7.70Q18.02 7.50 18.03 7.36L18.03 7.36L18.03 7.36Q18.05 7.21 18.06 7.10L18.06 7.10L18.06 7.10Q18.07 6.96 18.09 6.75L18.09 6.75L18.09 6.75Q18.10 6.54 18.10 6.26L18.10 6.26L18.10 6.26Q18.10 5.96 18.06 5.70L18.06 5.70L18.06 5.70Q18.00 5.33 17.89 5.15L17.89 5.15L17.89 5.15Q17.88 5.11 17.76 4.99L17.76 4.99L17.76 4.99Q17.64 4.87 17.63 4.82L17.63 4.82L17.63 4.82Q17.61 4.76 17.61 4.66L17.61 4.66L17.61 4.66Q17.61 4.20 18.14 3.36L18.14 3.36L18.14 3.36Q18.30 3.12 18.45 2.95L18.45 2.95L18.45 2.95Q18.61 2.79 18.79 2.72L18.79 2.72L18.79 2.72Q18.84 2.69 18.97 2.69L18.97 2.69L18.97 2.69Q19.01 2.69 19.09 2.69L19.09 2.69L19.09 2.69Q19.17 2.69 19.21 2.67L19.21 2.67L19.21 2.67Q19.36 2.62 19.52 2.46L19.52 2.46L19.52 2.46Q19.68 2.31 19.71 2.28L19.71 2.28L19.71 2.28Q19.87 2.13 20.01 2.03L20.01 2.03L20.01 2.03Q20.45 1.71 21.18 1.36L21.18 1.36L21.18 1.36Q21.91 1.01 22.43 1.01L22.43 1.01L22.43 1.01Q22.93 1.01 23.07 1.41L23.07 1.41L23.07 1.41Q23.13 1.57 23.13 1.75L23.13 1.75L23.13 1.75Q23.13 2.28 22.76 2.90L22.76 2.90L22.76 2.90Q22.40 3.53 21.81 4.30L21.81 4.30L21.81 4.30Q21.73 4.42 21.53 4.69L21.53 4.69L21.53 4.69Q23.04 3.92 24.39 3.92L24.39 3.92L24.39 3.92Q24.75 3.92 25.05 3.98L25.05 3.98Z"></path></g><!----><g data-v-423bf9ae="" id="8191aa22-666c-485a-a122-79d45a755aa1" transform="matrix(1.0513024224175347,0,0,1.0513024224175347,-0.4182662405444262,-1.8318472880610983)" stroke="none" fill="white"><path d="M92.812 49.125a6.058 6.058 0 0 0-5.383 3.281l-27.775-4.741a10.628 10.628 0 0 0-.43-1.82l22.734-11.268c1.703 1.74 4.389 2.262 6.658 1.072a5.663 5.663 0 0 0-5.262-10.03c-2.172 1.143-3.273 3.49-2.957 5.785l-22.842 11.32a10.669 10.669 0 0 0-1.673-1.732l18.902-26.375c.938.109 1.906.016 2.84-.373a5.662 5.662 0 1 0-7.405-3.044c.317.76.788 1.403 1.353 1.935l-18.795 26.1a10.61 10.61 0 0 0-1.633-.45l-1.179-19.699A5.5 5.5 0 1 0 42.375 14a5.499 5.499 0 0 0 4.066 5.305l1.161 19.416c-.691.103-1.359.267-1.999.496L24.944 12.771A6.838 6.838 0 0 0 26.25 8.75a6.875 6.875 0 1 0-6.875 6.875 6.844 6.844 0 0 0 2.827-.613l20.281 25.947a10.724 10.724 0 0 0-2.647 3.174l-18.602-6.435c.005-.1.03-.194.03-.297a5.841 5.841 0 0 0-5.84-5.84 5.84 5.84 0 0 0 0 11.681c1.855 0 3.489-.882 4.558-2.229l18.715 6.473a10.775 10.775 0 0 0-.152 1.726c0 .078.01.153.011.231L11.63 58.19c-1-1.605-2.767-2.682-4.797-2.682a5.662 5.662 0 0 0 0 11.324c2.967 0 5.374-2.291 5.617-5.195l26.773-8.72a10.573 10.573 0 0 0 2.546 3.905L30.218 73.656a4.944 4.944 0 0 0-6.001 3.321 4.956 4.956 0 0 0 9.474 2.908c.449-1.464.167-2.963-.607-4.151l11.601-16.906c1.362.635 2.875 1 4.477 1 .207 0 .405-.019.609-.029l2.371 23.204a6.873 6.873 0 0 0 2.233 13.372 6.873 6.873 0 1 0 1.262-13.629L53.346 58.97a10.617 10.617 0 0 0 3.637-2.597l16.47 17.112a5.466 5.466 0 0 0-.827 2.89 5.5 5.5 0 1 0 5.5-5.5c-.615 0-1.205.105-1.758.292-.045-.029-.123-.015-.268.09L58.917 53.404c.301-.699.524-1.437.671-2.203l27.199 4.647a6.062 6.062 0 1 0 6.025-6.723z"></path></g><!----></svg>